<?xml version="1.0" encoding="utf-8"?>
<!-- Generator: Adobe Illustrator 25.3.1, SVG Export Plug-In . SVG Version: 6.00 Build 0)  -->
<svg version="1.1" id="Layer_1" xmlns="http://www.w3.org/2000/svg" xmlns:xlink="http://www.w3.org/1999/xlink" x="0px" y="0px"
	 viewBox="0 0 748.1 226" style="enable-background:new 0 0 748.1 226;" xml:space="preserve">
<style type="text/css">
	.st0{fill:#FFFFFF;}
</style>
<g>
	<path class="st0" d="M217.2,73.4V25.4H41.3v48.1H161c4.4,0,8,3.6,8,8c0,4.4-3.6,8-8,8H41.3v48.1h0v15.6h0v48.1h175.9v-48.1H97.5
		c-4.4,0-8-3.6-8-8c0-3.5,2.3-6.5,5.5-7.6h122.2V89.5V73.4z"/>
	<path class="st0" d="M355.7,102.8V24H373V55h31V24h17.4v78.8H404V70.7h-31v32.1H355.7z"/>
	<polygon class="st0" points="571.3,41.5 571.3,24.2 509.4,24.2 509.4,41.5 531.4,41.5 531.7,41.5 531.7,102.8 549,102.8 549,41.5 
		549.4,41.5 	"/>
	<polygon class="st0" points="635.5,85.5 635.5,102.8 582.7,102.8 582.7,24.2 600.1,24.2 600.1,85.5 	"/>
	<path class="st0" d="M675.6,86.4c-11.2,0-20.2-9-20.2-23s9-23,20.2-23c11.2,0,20.2,9,20.2,23S686.8,86.4,675.6,86.4 M675.6,23.1
		c-21.2,0-38.1,16.7-38.1,40.3c0,23.6,16.9,40.3,38.1,40.3c21.2,0,38.1-16.7,38.1-40.3C713.7,39.8,696.8,23.1,675.6,23.1"/>
	<polygon class="st0" points="340.8,87.1 300.8,87.1 340.8,39.8 340.8,30.8 340.8,24 279.5,24 279.5,39.8 319.4,39.8 279.5,87.1 
		279.5,102.8 340.8,102.8 	"/>
	<polygon class="st0" points="489.5,24.1 468,58.8 446.6,24.1 434.4,24.1 434.4,36.7 459.3,77.6 459.3,77.6 459.3,102.8 
		476.7,102.8 476.7,77.6 476.7,77.6 501.7,36.7 501.7,24.1 	"/>
	<path class="st0" d="M342.1,171.9c0,0,0-0.1,0-0.1c0,0,0-0.1-0.1-0.1c-1-2.7-2.7-5.1-5-7.3c-3.6-3.4-7.4-5-7.4-5
		c6.6-4.3,8.3-9,8.7-10.3c0.6-1.8,1-3.8,1-5.9c0-5.9-2.4-10.8-7.1-14.8c-4.7-4-11-6-18.8-6h-33.9v78.8h36.2c8.4,0,15-2.2,20.1-6.5
		c5-4.4,7.5-9.7,7.5-16C343.3,176.2,342.9,174,342.1,171.9z M296.7,137.4h16c2.9,0,5.2,0.7,6.9,2.1c1.7,1.4,2.6,3.3,2.6,5.5
		s-0.8,4.1-2.6,5.5c-1.7,1.4-4,2.1-6.9,2.1h-16V137.4z M323.2,182.9c-2,1.6-4.7,2.4-8.2,2.4h-18.3v-18H315c3.5,0,6.2,0.8,8.2,2.4
		c2,1.6,3,3.8,3,6.6C326.2,179.1,325.2,181.3,323.2,182.9z"/>
	<path class="st0" d="M509.8,161.3c0-29.6-24.6-38.5-25.6-38.9l0,0v0h-38.3l0,0h-5.5v78.7h5.5h11.7h26.6v0
		c1.1-0.4,25.6-9.4,25.6-39.1c0-0.1,0-0.2,0-0.4C509.8,161.6,509.8,161.4,509.8,161.3z M492.3,162c0,14.2-9,20.2-12.7,22h-22.1
		v-44.6h22.2c3.7,1.9,12.5,7.9,12.5,21.8c0,0.1,0,0.2,0,0.4C492.3,161.8,492.3,161.9,492.3,162z"/>
	<path class="st0" d="M406.3,122.4v54.5c-2.1,3.5-7,8.9-17.1,9c-10-0.1-14.9-5.5-17.1-9v-54.5H355v56.8h0
		c2.5,8.2,12.9,23.6,34.3,23.6c21.3-0.1,31.7-15.5,34.3-23.6h0v-56.8H406.3z"/>
</g>
</svg>
